<svg width="760" height="420" viewBox="0 0 760 420" fill="none" xmlns="http://www.w3.org/2000/svg">
  <defs>
    <linearGradient id="bg" x1="90" y1="42" x2="678" y2="380" gradientUnits="userSpaceOnUse">
      <stop stop-color="#E9F2FF"/>
      <stop offset="1" stop-color="#D8F1EC"/>
    </linearGradient>
    <linearGradient id="accent" x1="203" y1="82" x2="546" y2="311" gradientUnits="userSpaceOnUse">
      <stop stop-color="#1D4C8E"/>
      <stop offset="1" stop-color="#23807D"/>
    </linearGradient>
  </defs>
  <rect x="24" y="24" width="712" height="372" rx="38" fill="url(#bg)"/>
  <rect x="24" y="24" width="712" height="372" rx="38" stroke="#C6D9E5" stroke-width="2"/>
  <rect x="172" y="78" width="416" height="258" rx="28" fill="#fff"/>
  <rect x="172" y="78" width="416" height="258" rx="28" stroke="#D2E1EA" stroke-width="2"/>
  <rect x="172" y="78" width="416" height="62" rx="28" fill="url(#accent)"/>
  <circle cx="224" cy="109" r="10" fill="#fff"/>
  <circle cx="260" cy="109" r="10" fill="#fff"/>
  <rect x="215" y="167" width="83" height="45" rx="12" fill="#EAF3FF"/>
  <rect x="309" y="167" width="83" height="45" rx="12" fill="#EAF3FF"/>
  <rect x="403" y="167" width="83" height="45" rx="12" fill="#EAF3FF"/>
  <rect x="497" y="167" width="48" height="45" rx="12" fill="#DFF4EC"/>
  <rect x="215" y="223" width="83" height="45" rx="12" fill="#EAF3FF"/>
  <rect x="309" y="223" width="83" height="45" rx="12" fill="#DFF4EC"/>
  <rect x="403" y="223" width="83" height="45" rx="12" fill="#EAF3FF"/>
  <rect x="497" y="223" width="48" height="45" rx="12" fill="#EAF3FF"/>
  <rect x="215" y="279" width="330" height="34" rx="12" fill="#EDF4F8"/>
  <path d="M332 242 347 257 375 229" stroke="#1F7C4A" stroke-width="12" stroke-linecap="round" stroke-linejoin="round"/>
  <rect x="68" y="286" width="88" height="72" rx="20" fill="#fff"/>
  <rect x="68" y="286" width="88" height="72" rx="20" stroke="#D2E1EA" stroke-width="2"/>
  <path d="M99 322h26M99 335h18" stroke="#1D4C8E" stroke-width="6" stroke-linecap="round"/>
  <circle cx="652" cy="82" r="26" fill="#fff"/>
  <path d="M642 82h20M652 72v20" stroke="#23807D" stroke-width="6" stroke-linecap="round"/>
</svg>
